<svg width="2679" height="192" viewBox="0 0 2679 192" fill="none" xmlns="http://www.w3.org/2000/svg">
<path d="M819.112 191H55.1111C55.1111 191 -68.8889 -19 55.1111 16C179.111 50.9999 108.111 24.9999 155.111 41.9999C202.111 59 242.908 18.9436 295.112 23C331.411 25.8206 338.112 59 381.112 59C424.112 59 429.873 39.6897 462.112 42C512.167 45.587 525.163 69.1561 575.112 73.9999C627.981 79.1269 649.699 50.3812 702.112 59C770.084 70.1771 819.112 191 819.112 191Z" fill="#006176"/>
<path d="M1499.22 191.935H735.222C735.222 191.935 611.222 -18.0651 735.222 16.9349C859.222 51.9349 788.222 25.9348 835.222 42.9349C882.222 59.9349 923.019 19.8785 975.223 23.9349C1011.52 26.7555 1018.22 59.9349 1061.22 59.9349C1104.22 59.9349 1109.98 40.6246 1142.22 42.9349C1192.28 46.5219 1205.27 70.0911 1255.22 74.9349C1308.09 80.0618 1329.81 51.3161 1382.22 59.9349C1450.19 71.112 1499.22 191.935 1499.22 191.935Z" fill="#006176"/>
<path d="M2678.11 191H1375.1C1375.1 191 1163.62 -33.1597 1375.1 4.20022C1586.59 41.5601 1465.49 13.807 1545.65 31.9533C1625.81 50.0996 1695.39 7.34231 1784.43 11.6722C1846.33 14.683 1857.76 50.0996 1931.1 50.0996C2004.44 50.0996 2014.26 29.4873 2069.24 31.9533C2154.61 35.7822 2176.78 60.9406 2261.97 66.111C2352.14 71.5836 2389.18 40.8997 2478.57 50.0996C2594.49 62.0304 2678.11 191 2678.11 191Z" fill="#006176"/>
</svg>
