<svg width="2679" height="192" viewBox="0 0 2679 192" fill="none" xmlns="http://www.w3.org/2000/svg">
<path d="M820.001 191H56.0001C56.0001 191 -67.9999 -19 56.0001 16C180 50.9999 109 24.9999 156 41.9999C203 59 243.797 18.9436 296.001 23C332.3 25.8206 339.001 59 382.001 59C425.001 59 430.762 39.6897 463.001 42C513.056 45.587 526.052 69.1561 576.001 73.9999C628.87 79.1269 650.588 50.3812 703.001 59C770.973 70.1771 820.001 191 820.001 191Z" fill="#0588A5"/>
<path d="M1500.11 191.935H736.111C736.111 191.935 612.111 -18.0651 736.111 16.9349C860.111 51.9349 789.111 25.9348 836.111 42.9349C883.111 59.9349 923.908 19.8785 976.112 23.9349C1012.41 26.7555 1019.11 59.9349 1062.11 59.9349C1105.11 59.9349 1110.87 40.6246 1143.11 42.9349C1193.17 46.5219 1206.16 70.0911 1256.11 74.9349C1308.98 80.0618 1330.7 51.3161 1383.11 59.9349C1451.08 71.112 1500.11 191.935 1500.11 191.935Z" fill="#0588A5"/>
<path d="M2679 191H1375.99C1375.99 191 1164.51 -33.1597 1375.99 4.20022C1587.47 41.5601 1466.38 13.807 1546.54 31.9533C1626.7 50.0996 1696.28 7.34231 1785.31 11.6722C1847.22 14.683 1858.65 50.0996 1931.99 50.0996C2005.32 50.0996 2015.15 29.4873 2070.13 31.9533C2155.5 35.7822 2177.67 60.9406 2262.86 66.111C2353.03 71.5836 2390.07 40.8997 2479.46 50.0996C2595.38 62.0304 2679 191 2679 191Z" fill="#0588A5"/>
</svg>
